REM DIRINDEX 1\2,1\3\7,1\3\8,1\4\9,1\4\10,1\4\11,1\5\12,1\5\13,1\5\14,1\6\15,1\6\16,1\6\17
REM DIRNAME "folder01","folder02","folder03","folder04","folder05","folder06","folder07","folder08","folder09","folder10","folder11","folder12","folder13","folder14","folder15","folder16","folder17"
TITLE ""
FILE "2Q_t_0401-0417.mp3" MP3
  TRACK 01 AUDIO
    TITLE "0:"
    INDEX 01 00:00:00
  TRACK 02 AUDIO
    TITLE "2:cjc174_2550"
    INDEX 01 00:00:14
  TRACK 03 AUDIO
    TITLE "0:"
    INDEX 01 00:01:49
  TRACK 04 AUDIO
    TITLE "2:cjc174_2551"
    INDEX 01 00:02:27
  TRACK 05 AUDIO
    TITLE "0:"
    INDEX 01 00:03:36
  TRACK 06 AUDIO
    TITLE "7:cjc174_2552"
    INDEX 01 00:04:06
  TRACK 07 AUDIO
    TITLE "0:"
    INDEX 01 00:05:21
  TRACK 08 AUDIO
    TITLE "8:cjc174_2553"
    INDEX 01 00:05:70
  TRACK 09 AUDIO
    TITLE "0:"
    INDEX 01 00:07:28
  TRACK 10 AUDIO
    TITLE "7:cjc174_2554"
    INDEX 01 00:07:71
  TRACK 11 AUDIO
    TITLE "0:"
    INDEX 01 00:08:73
  TRACK 12 AUDIO
    TITLE "8:cjc174_2555"
    INDEX 01 00:09:43
  TRACK 13 AUDIO
    TITLE "0:"
    INDEX 01 00:12:27
  TRACK 14 AUDIO
    TITLE "7:cjc174_2556"
    INDEX 01 00:12:70
  TRACK 15 AUDIO
    TITLE "0:"
    INDEX 01 00:14:14
  TRACK 16 AUDIO
    TITLE "8:cjc174_2557"
    INDEX 01 00:14:59
  TRACK 17 AUDIO
    TITLE "0:"
    INDEX 01 00:16:35
  TRACK 18 AUDIO
    TITLE "7:cjc174_2558"
    INDEX 01 00:17:05
  TRACK 19 AUDIO
    TITLE "0:"
    INDEX 01 00:18:14
  TRACK 20 AUDIO
    TITLE "8:cjc174_2559"
    INDEX 01 00:18:59
  TRACK 21 AUDIO
    TITLE "0:"
    INDEX 01 00:20:27
  TRACK 22 AUDIO
    TITLE "7:cjc174_2560"
    INDEX 01 00:20:72
  TRACK 23 AUDIO
    TITLE "0:"
    INDEX 01 00:22:06
  TRACK 24 AUDIO
    TITLE "8:cjc174_2561"
    INDEX 01 00:22:55
  TRACK 25 AUDIO
    TITLE "0:"
    INDEX 01 00:23:56
  TRACK 26 AUDIO
    TITLE "7:cjc174_2562"
    INDEX 01 00:24:25
  TRACK 27 AUDIO
    TITLE "0:"
    INDEX 01 00:25:55
  TRACK 28 AUDIO
    TITLE "8:cjc174_2563"
    INDEX 01 00:26:27
  TRACK 29 AUDIO
    TITLE "0:"
    INDEX 01 00:28:56
  TRACK 30 AUDIO
    TITLE "7:cjc174_2564"
    INDEX 01 00:29:26
  TRACK 31 AUDIO
    TITLE "0:"
    INDEX 01 00:30:39
  TRACK 32 AUDIO
    TITLE "8:cjc174_2565"
    INDEX 01 00:31:13
  TRACK 33 AUDIO
    TITLE "0:"
    INDEX 01 00:33:69
  TRACK 34 AUDIO
    TITLE "7:cjc174_2566"
    INDEX 01 00:34:37
  TRACK 35 AUDIO
    TITLE "0:"
    INDEX 01 00:35:64
  TRACK 36 AUDIO
    TITLE "8:cjc174_2567"
    INDEX 01 00:36:37
  TRACK 37 AUDIO
    TITLE "0:"
    INDEX 01 00:38:72
  TRACK 38 AUDIO
    TITLE "7:cjc174_2568"
    INDEX 01 00:39:44
  TRACK 39 AUDIO
    TITLE "0:"
    INDEX 01 00:40:53
  TRACK 40 AUDIO
    TITLE "8:cjc174_2569"
    INDEX 01 00:41:27
  TRACK 41 AUDIO
    TITLE "0:"
    INDEX 01 00:42:69
  TRACK 42 AUDIO
    TITLE "7:cjc174_2570"
    INDEX 01 00:43:41
  TRACK 43 AUDIO
    TITLE "0:"
    INDEX 01 00:44:62
  TRACK 44 AUDIO
    TITLE "8:cjc174_2571"
    INDEX 01 00:45:33
  TRACK 45 AUDIO
    TITLE "0:"
    INDEX 01 00:48:56
  TRACK 46 AUDIO
    TITLE "7:cjc174_2572"
    INDEX 01 00:49:26
  TRACK 47 AUDIO
    TITLE "0:"
    INDEX 01 00:50:28
  TRACK 48 AUDIO
    TITLE "8:cjc174_2573"
    INDEX 01 00:50:73
  TRACK 49 AUDIO
    TITLE "0:"
    INDEX 01 00:54:06
  TRACK 50 AUDIO
    TITLE "7:cjc174_2574"
    INDEX 01 00:54:51
  TRACK 51 AUDIO
    TITLE "0:"
    INDEX 01 00:56:01
  TRACK 52 AUDIO
    TITLE "8:cjc174_2575"
    INDEX 01 00:56:46
  TRACK 53 AUDIO
    TITLE "0:"
    INDEX 01 01:00:73
  TRACK 54 AUDIO
    TITLE "7:cjc174_2576"
    INDEX 01 01:01:41
  TRACK 55 AUDIO
    TITLE "0:"
    INDEX 01 01:02:51
  TRACK 56 AUDIO
    TITLE "8:cjc174_2577"
    INDEX 01 01:03:27
  TRACK 57 AUDIO
    TITLE "0:"
    INDEX 01 01:04:65
  TRACK 58 AUDIO
    TITLE "7:cjc174_2578"
    INDEX 01 01:05:35
  TRACK 59 AUDIO
    TITLE "0:"
    INDEX 01 01:06:37
  TRACK 60 AUDIO
    TITLE "8:cjc174_2579"
    INDEX 01 01:07:11
  TRACK 61 AUDIO
    TITLE "0:"
    INDEX 01 01:08:51
  TRACK 62 AUDIO
    TITLE "7:cjc174_2580"
    INDEX 01 01:09:19
  TRACK 63 AUDIO
    TITLE "0:"
    INDEX 01 01:10:40
  TRACK 64 AUDIO
    TITLE "8:cjc174_2581"
    INDEX 01 01:11:10
  TRACK 65 AUDIO
    TITLE "0:"
    INDEX 01 01:14:44
  TRACK 66 AUDIO
    TITLE "7:cjc174_2582"
    INDEX 01 01:15:16
  TRACK 67 AUDIO
    TITLE "0:"
    INDEX 01 01:16:21
  TRACK 68 AUDIO
    TITLE "8:cjc174_2583"
    INDEX 01 01:16:66
  TRACK 69 AUDIO
    TITLE "0:"
    INDEX 01 01:21:32
  TRACK 70 AUDIO
    TITLE "7:cjc174_2584"
    INDEX 01 01:22:00
  TRACK 71 AUDIO
    TITLE "0:"
    INDEX 01 01:23:02
  TRACK 72 AUDIO
    TITLE "8:cjc174_2585"
    INDEX 01 01:23:49
  TRACK 73 AUDIO
    TITLE "0:"
    INDEX 01 01:27:39
